<svg width="18" height="19" viewBox="0 0 18 19" fill="none" xmlns="http://www.w3.org/2000/svg">
<g clip-path="url(#clip0)">
<path d="M17.6589 8.23038C17.737 8.23038 17.8003 8.29524 17.8003 8.37526V9.89636C17.8003 10.4657 17.7487 11.0223 17.6497 11.5623C16.8835 15.7568 13.2752 18.9267 8.95014 18.8961C4.09707 18.8619 0.213154 14.8462 0.223899 9.87608C0.234576 4.91493 4.16518 0.896362 9.0121 0.896362C11.3867 0.896362 13.5413 1.86112 15.1232 3.42825C15.1803 3.48481 15.1818 3.57805 15.1256 3.63556L13.0242 5.78751C12.9701 5.84292 12.8827 5.84436 12.8273 5.79032C11.8345 4.82251 10.4912 4.22833 9.0121 4.22833C5.95781 4.22833 3.49831 6.72921 3.47757 9.85702C3.45673 13.0054 5.94271 15.5644 9.0121 15.5644C11.5025 15.5644 13.6089 13.8795 14.3034 11.5623H9.15357C9.07544 11.5623 9.0121 11.4975 9.0121 11.4175V8.37522C9.0121 8.29521 9.07544 8.23034 9.15357 8.23034H17.6589V8.23038Z" fill="#2196F3"/>
<path d="M17.6585 8.23041H16.5976C16.6757 8.23041 16.739 8.29527 16.739 8.37529V9.89639C16.739 10.4657 16.6874 11.0224 16.5884 11.5624C15.8575 15.5639 12.5397 18.6329 8.48071 18.8801C8.63602 18.8895 8.79235 18.895 8.94979 18.8961C13.2749 18.9267 16.8832 15.7568 17.6493 11.5624C17.7484 11.0224 17.8 10.4657 17.8 9.89639V8.37525C17.8 8.29527 17.7366 8.23041 17.6585 8.23041Z" fill="#1E88E5"/>
<path d="M3.98457 7.52268L1.31555 5.54775C2.81292 2.77423 5.69834 0.896362 9.01171 0.896362C11.3864 0.896362 13.5409 1.86112 15.1228 3.42825C15.1799 3.48481 15.1814 3.57805 15.1252 3.63556L13.0238 5.78751C12.9698 5.84281 12.8824 5.84453 12.8271 5.7906C11.8343 4.82261 10.4909 4.22837 9.01171 4.22837C6.78266 4.22837 4.86126 5.5778 3.98457 7.52268Z" fill="#F44336"/>
<path d="M3.21411 6.95253L3.98463 7.52266C4.78484 5.74747 6.45556 4.46898 8.43601 4.25927C8.45091 4.25762 8.46522 4.25561 8.48039 4.25414C8.30611 4.23719 8.12948 4.22833 7.95083 4.22833C5.9372 4.22833 4.18229 5.31547 3.21411 6.95253Z" fill="#E53935"/>
<path d="M14.0618 3.42825C14.1189 3.48481 14.1204 3.57805 14.0642 3.6356L12.3586 5.38226C12.522 5.50953 12.6784 5.64566 12.8269 5.79036C12.8823 5.84439 12.9697 5.84295 13.0238 5.78755L15.1252 3.6356C15.1813 3.57805 15.1798 3.48485 15.1227 3.42825C13.5409 1.86112 11.3863 0.896362 9.0117 0.896362C8.83349 0.896362 8.6567 0.902444 8.48114 0.913167C10.6452 1.04518 12.5986 1.97868 14.0618 3.42825Z" fill="#E53935"/>
<path d="M15.4585 16.0128C13.8536 17.7863 11.5591 18.8964 9.01176 18.8964C5.57109 18.8964 2.59229 16.8715 1.14972 13.9216L3.87459 12.0093C4.69227 14.0929 6.68438 15.5644 9.01176 15.5644C10.4723 15.5644 11.8006 14.9849 12.7895 14.0382L15.4585 16.0128Z" fill="#4CAF50"/>
<path d="M3.87467 12.0093L3.07117 12.5731C4.0044 14.3536 5.8396 15.5643 7.95087 15.5643C8.12941 15.5643 8.3059 15.5554 8.48012 15.5385C6.38437 15.3339 4.62929 13.9323 3.87467 12.0093Z" fill="#43A047"/>
<path d="M9.01181 18.8964C11.5592 18.8964 13.8537 17.7863 15.4585 16.0128L14.8048 15.5291C13.2979 17.4497 11.0373 18.7238 8.48267 18.88C8.65774 18.8907 8.83413 18.8964 9.01181 18.8964Z" fill="#43A047"/>
<path d="M3.47711 9.89635C3.47711 10.6431 3.61821 11.3563 3.87461 12.0093L1.14971 13.9215C0.557017 12.7104 0.223511 11.3432 0.223511 9.89635C0.223511 8.3191 0.619599 6.8367 1.31559 5.54773L3.9846 7.52267C3.65889 8.24446 3.47711 9.04887 3.47711 9.89635Z" fill="#FFC107"/>
<path d="M3.0711 12.5731L3.8746 12.0093C3.6182 11.3563 3.47711 10.6431 3.47711 9.89633C3.47711 9.04885 3.65888 8.24444 3.98459 7.52264L3.21408 6.95251C2.71373 7.79855 2.42334 8.79133 2.41627 9.85703C2.40975 10.8398 2.64754 11.7651 3.0711 12.5731Z" fill="#FFB300"/>
</g>
<defs>
<clipPath id="clip0">
<rect width="17.5765" height="18" fill="white" transform="translate(0.223511 0.896362)"/>
</clipPath>
</defs>
</svg>
